<svg width="101" height="76" viewBox="0 0 101 76" fill="none" xmlns="http://www.w3.org/2000/svg">
<g clip-path="url(#clip0_1119_16900)">
<path d="M16.6209 73.9706L18.3085 73.9705L19.1113 67.9712H16.6206L16.6209 73.9706Z" fill="#9E616A"/>
<path d="M16.1904 73.4628L16.6655 73.4627L18.52 72.7676L19.514 73.4626H19.5141C20.0758 73.4627 20.6146 73.6683 21.0118 74.0344C21.409 74.4005 21.6321 74.897 21.6322 75.4147V75.4781L16.1905 75.4783L16.1904 73.4628Z" fill="#2F2E41"/>
<path d="M24.4613 73.9706L26.1488 73.9705L26.9517 67.9712H24.4609L24.4613 73.9706Z" fill="#9E616A"/>
<path d="M24.0308 73.4628L24.5058 73.4627L26.3603 72.7676L27.3543 73.4626H27.3545C27.9162 73.4627 28.4549 73.6683 28.8521 74.0344C29.2493 74.4005 29.4725 74.897 29.4725 75.4147V75.4781L24.0309 75.4783L24.0308 73.4628Z" fill="#2F2E41"/>
<path d="M25.8103 41.1392L12.5508 41.458L12.7814 47.4088C12.7814 47.4088 12.5508 49.0028 13.012 49.4279C13.4732 49.8529 13.7038 49.8529 13.4732 50.5968C13.2426 51.3406 14.461 52.5556 14.313 52.692C14.165 52.8283 13.8191 53.5722 13.8191 53.5722L14.9721 59.6293C14.9721 59.6293 15.7792 70.1496 16.0098 70.3621C16.2404 70.5746 16.471 70.3621 16.2404 70.8934C16.0098 71.4248 15.7792 71.2122 16.0098 71.4248C16.2141 71.6278 16.4065 71.8406 16.5863 72.0624H19.3739C19.3739 72.0624 19.5841 70.9997 19.5841 70.8934C19.5841 70.7872 19.8147 70.1496 19.8147 70.0433C19.8147 69.9371 19.6109 69.7492 19.6109 69.7492C19.5405 69.5332 19.4929 69.3114 19.4688 69.0869C19.4688 68.8744 18.777 60.692 18.777 60.692L20.1606 50.0654L23.5043 60.4794C23.5043 60.4794 23.5043 69.6183 23.7349 69.8308C23.9655 70.0433 23.9655 69.9371 23.8502 70.3621C23.7349 70.7872 23.2737 70.6809 23.6196 70.9997C23.9655 71.3185 24.0808 70.7872 23.9655 71.3185L23.8502 71.8498L27.3092 71.8954C27.3092 71.8954 27.7704 70.9997 27.5398 70.6809C27.3092 70.3621 27.3231 70.4491 27.6044 69.9274C27.8857 69.4057 28.001 69.2995 27.8857 69.1932C27.7704 69.0869 27.7704 68.5217 27.7704 68.5217L27.1939 58.3541C27.1939 58.3541 27.0786 47.6213 27.0786 47.3025C27.07 47.1385 27.1027 46.9748 27.1744 46.8245V46.3918L26.7327 44.8584L25.8103 41.1392Z" fill="#2F2E41"/>
<path d="M40.8164 17.9624C40.7527 18.1257 40.6509 18.274 40.5182 18.3971C40.3856 18.5202 40.2252 18.6149 40.0485 18.6747C39.8718 18.7345 39.6831 18.7578 39.4955 18.7431C39.308 18.7284 39.1262 18.6759 38.963 18.5894L33.2073 23.0335L32.8945 20.8612L38.5241 16.8895C38.6999 16.6464 38.9663 16.4713 39.2729 16.3972C39.5794 16.3232 39.9048 16.3553 40.1873 16.4876C40.4699 16.6198 40.69 16.843 40.8059 17.1148C40.9219 17.3867 40.9256 17.6882 40.8164 17.9624V17.9624Z" fill="#9E616A"/>
<path d="M15.4366 19.7966C17.4107 19.7966 19.0109 18.3217 19.0109 16.5024C19.0109 14.683 17.4107 13.2081 15.4366 13.2081C13.4626 13.2081 11.8623 14.683 11.8623 16.5024C11.8623 18.3217 13.4626 19.7966 15.4366 19.7966Z" fill="#9E616A"/>
<path d="M18.3345 13.2239C18.0017 12.4929 16.5756 12.0589 14.319 12.1243C12.0625 12.1896 11.6673 14.6698 11.6673 14.6698C10.4243 15.7375 12.431 19.0711 12.7792 18.6115C13.1273 18.1519 13.7118 18.5863 13.7118 18.5863L13.1548 15.6986C13.743 15.9072 14.3757 16.0472 14.929 15.8042L14.0123 15.3524C14.772 15.4396 15.5318 15.5267 16.2916 15.6138L15.3516 14.9473C15.3744 14.9404 15.3972 14.9332 15.42 14.9261C15.797 15.0759 16.2007 15.1604 16.6109 15.1753C17.0901 15.172 17.5994 14.9651 17.8003 14.564C17.8537 14.4539 17.8826 14.335 17.8853 14.2144C18.5461 14.4121 18.8931 15.1256 18.8931 15.1256C18.7676 14.4778 18.5807 13.8415 18.3345 13.2239Z" fill="#2F2E41"/>
<path d="M18.2977 19.9439C17.4995 19.9439 16.9855 20.0454 15.7435 20.2382C13.451 20.5942 14.824 22.6018 14.824 22.6018C14.824 22.6018 14.9277 22.5532 14.6468 22.6018C14.3658 22.6503 13.4079 23.4139 13.4079 23.4139L11.695 24.8161C9.1136 26.6832 9.69151 29.5964 9.69151 29.5964L13.4558 33.0878L11.8067 40.0927C11.8067 40.0927 12.5076 41.133 12.1452 41.5994C11.7828 42.0658 15.338 41.9319 15.338 41.9319C17.7917 42.9397 26.4362 42.0878 26.4362 42.0878C26.3165 41.7995 25.1591 39.5645 25.1591 39.5645C25.662 38.7641 25.183 37.6077 25.183 37.6077C25.183 37.6077 24.6834 32.1373 24.3641 31.3811C24.0448 30.6248 25.1815 26.5272 25.9286 26.5714C26.6757 26.6155 31.5016 24.3468 31.5016 24.3468C31.5016 24.3468 31.3803 24.1687 32.9735 23.5684C33.8886 23.237 34.7276 22.7493 35.4464 22.131L36.1009 20.926C35.7864 21.0378 34.7248 19.1927 34.7248 19.1927L34.2618 19.3554L33.9936 19.284C33.9936 19.284 31.9007 19.8328 31.4729 20.233C31.0451 20.6332 30.9014 20.5213 30.515 20.6111C30.1287 20.7008 30.0808 20.951 29.9595 20.923C29.8382 20.8951 29.6227 21.2335 29.4534 21.1893C29.2842 21.1452 28.9218 21.3232 28.6808 21.3673C28.4397 21.4115 26.7268 22.0795 26.7268 22.0795C25.6668 21.5851 22.7932 21.7852 22.7932 21.7852C22.7932 21.7852 21.8529 21.2747 21.5863 21.7852C21.5146 21.9303 21.3994 22.0534 21.2544 22.1402C21.1093 22.227 20.9403 22.2738 20.7674 22.2751L19.6212 21.8235C19.5545 22.0475 18.3043 19.7116 18.2977 19.9439Z" fill="#69B4DE"/>
<path d="M12.8253 47.3593C12.7002 47.2298 12.6073 47.0765 12.5533 46.9103C12.4994 46.7441 12.4856 46.569 12.513 46.3974C12.5404 46.2258 12.6083 46.0618 12.7119 45.9169C12.8155 45.7721 12.9523 45.65 13.1127 45.5591L11.4888 39.6756L13.709 40.4597L14.9429 46.0156C15.0906 46.274 15.1303 46.5733 15.0545 46.8569C14.9788 47.1405 14.7927 47.3887 14.5317 47.5543C14.2707 47.7199 13.9528 47.7916 13.6383 47.7556C13.3238 47.7197 13.0346 47.5787 12.8253 47.3593Z" fill="#9E616A"/>
<path d="M9.83686 28.4775L9.63632 30.827C9.63632 30.827 9.38703 33.4082 9.4523 33.8855C9.51758 34.3628 9.63913 37.2776 9.63913 37.2776L11.7526 41.1308L14.1472 40.5423L14.0039 38.7347L14.1472 40.3952L14.4665 38.9239L13.6682 36.4226L14.1472 35.5398L13.9057 32.5764L9.83686 28.4775Z" fill="#69B4DE"/>
<path d="M83.8806 57.4856H73.5572C73.2821 57.4853 73.0183 57.3845 72.8238 57.2052C72.6293 57.0259 72.5198 56.7828 72.5195 56.5293V48.2899C72.5198 48.0364 72.6293 47.7933 72.8238 47.614C73.0183 47.4347 73.2821 47.3339 73.5572 47.3336H83.8806C84.1557 47.3339 84.4195 47.4347 84.614 47.614C84.8085 47.7933 84.918 48.0364 84.9183 48.2899V56.5293C84.918 56.7828 84.8085 57.0259 84.614 57.2052C84.4195 57.3845 84.1557 57.4853 83.8806 57.4856Z" fill="#F2F2F2"/>
<path d="M83.8806 47.0393H73.5572C73.2821 47.039 73.0183 46.9381 72.8238 46.7589C72.6293 46.5796 72.5198 46.3365 72.5195 46.0829V37.8436C72.5198 37.59 72.6293 37.347 72.8238 37.1677C73.0183 36.9884 73.2821 36.8875 73.5572 36.8872H83.8806C84.1557 36.8875 84.4195 36.9884 84.614 37.1677C84.8085 37.347 84.918 37.59 84.9183 37.8436V46.0829C84.918 46.3365 84.8085 46.5796 84.614 46.7589C84.4195 46.9381 84.1557 47.039 83.8806 47.0393Z" fill="#F2F2F2"/>
<path d="M83.8806 67.9319H73.5572C73.2821 67.9316 73.0183 67.8308 72.8238 67.6515C72.6293 67.4722 72.5198 67.2291 72.5195 66.9756V58.7362C72.5198 58.4827 72.6293 58.2396 72.8238 58.0603C73.0183 57.881 73.2821 57.7802 73.5572 57.7799H83.8806C84.1557 57.7802 84.4195 57.881 84.614 58.0603C84.8085 58.2396 84.918 58.4827 84.9183 58.7362V66.9756C84.918 67.2291 84.8085 67.4722 84.614 67.6515C84.4195 67.8308 84.1557 67.9316 83.8806 67.9319Z" fill="#F2F2F2"/>
<path d="M71.1624 67.9319H60.8389C60.5638 67.9316 60.3001 67.8308 60.1055 67.6515C59.911 67.4722 59.8016 67.2291 59.8013 66.9756V58.7362C59.8016 58.4827 59.911 58.2396 60.1055 58.0603C60.3001 57.881 60.5638 57.7802 60.8389 57.7799H71.1624C71.4375 57.7802 71.7013 57.881 71.8958 58.0603C72.0904 58.2396 72.1998 58.4827 72.2001 58.7362V66.9756C72.1998 67.2291 72.0904 67.4722 71.8958 67.6515C71.7013 67.8308 71.4375 67.9316 71.1624 67.9319Z" fill="#F2F2F2"/>
<path d="M99.2359 47.0393H86.2755C86.0003 47.039 85.7366 46.9381 85.5421 46.7589C85.3475 46.5796 85.2381 46.3365 85.2378 46.0829V37.8436C85.2381 37.59 85.3475 37.347 85.5421 37.1677C85.7366 36.9884 86.0004 36.8875 86.2755 36.8872H99.2359C99.511 36.8875 99.7748 36.9884 99.9693 37.1677C100.164 37.347 100.273 37.59 100.274 37.8436V46.0829C100.273 46.3365 100.164 46.5796 99.9693 46.7589C99.7748 46.9381 99.511 47.039 99.2359 47.0393Z" fill="#F2F2F2"/>
<path d="M46.6842 36.5194V36.4885H47.1631V36.5194H59.4022V36.4885H59.8811V36.5194H72.1203V36.5835H72.5993V36.5194H84.8384V36.5835H85.3173V36.5194H100.193V5.38651C100.193 4.67914 100.042 3.9787 99.7485 3.32518C99.4548 2.67166 99.0243 2.07785 98.4816 1.57767C97.9389 1.07749 97.2946 0.680721 96.5855 0.410023C95.8764 0.139326 95.1164 0 94.3489 0H37.3923C35.8423 3.90216e-07 34.3557 0.567505 33.2597 1.57767C32.1636 2.58784 31.5479 3.95792 31.5479 5.38651V36.5194H46.6842Z" fill="#E6E6E6"/>
<path d="M99.2359 47.3336H86.2755C85.7033 47.3336 85.2378 48.2059 85.2378 49.278V66.9756C85.2381 67.1807 85.3099 67.3803 85.4425 67.5451C85.5752 67.7098 85.7617 67.8309 85.9747 67.8906C86.0644 67.9441 86.1686 67.9732 86.2755 67.9746H99.2359C99.3427 67.9732 99.447 67.9441 99.5367 67.8906C99.7497 67.8309 99.9362 67.7098 100.069 67.5451C100.201 67.3803 100.273 67.1807 100.274 66.9756V49.278C100.274 48.2059 99.8081 47.3336 99.2359 47.3336Z" fill="#F2F2F2"/>
<path d="M45.7266 67.9319H32.5059C32.2308 67.9316 31.9671 67.8308 31.7725 67.6515C31.578 67.4722 31.4686 67.2291 31.4683 66.9756V58.7362C31.4686 58.4827 31.578 58.2396 31.7725 58.0603C31.9671 57.881 32.2308 57.7802 32.5059 57.7799H45.7266C46.0017 57.7802 46.2654 57.881 46.46 58.0603C46.6545 58.2396 46.7639 58.4827 46.7642 58.7362V66.9756C46.7639 67.2291 46.6545 67.4722 46.46 67.6515C46.2654 67.8308 46.0017 67.9316 45.7266 67.9319Z" fill="#F2F2F2"/>
<path d="M45.7266 57.4856H32.5059C32.2308 57.4853 31.9671 57.3845 31.7725 57.2052C31.578 57.0259 31.4686 56.7828 31.4683 56.5293V48.2899C31.4686 48.0364 31.578 47.7933 31.7725 47.614C31.9671 47.4347 32.2308 47.3339 32.5059 47.3336H45.7266C46.0017 47.3339 46.2654 47.4347 46.46 47.614C46.6545 47.7933 46.7639 48.0364 46.7642 48.2899V56.5293C46.7639 56.7828 46.6545 57.0259 46.46 57.2052C46.2654 57.3845 46.0017 57.4853 45.7266 57.4856Z" fill="#F2F2F2"/>
<path d="M85.3173 68.4469V68.2665H84.8384V68.4469H72.5993V68.5608H72.1203V68.4469H59.8811V68.5608H59.4022V68.4469H47.1631V68.5608H46.6842V68.4469H31.5479V70.0918C31.5479 71.5204 32.1636 72.8904 33.2597 73.9006C34.3557 74.9108 35.8423 75.4783 37.3923 75.4783H94.3489C95.899 75.4783 97.3856 74.9108 98.4816 73.9006C99.5777 72.8904 100.193 71.5203 100.193 70.0918V68.4469H85.3173Z" fill="#E6E6E6"/>
<path d="M45.7266 47.0393H32.5059C32.2308 47.039 31.9671 46.9381 31.7725 46.7589C31.578 46.5796 31.4686 46.3365 31.4683 46.0829V37.8436C31.4686 37.59 31.578 37.347 31.7725 37.1677C31.9671 36.9884 32.2308 36.8875 32.5059 36.8872H45.7266C46.0017 36.8875 46.2654 36.9884 46.46 37.1677C46.6545 37.347 46.7639 37.59 46.7642 37.8436V46.0829C46.7639 46.3365 46.6545 46.5796 46.46 46.7589C46.2654 46.9381 46.0017 47.039 45.7266 47.0393Z" fill="#F2F2F2"/>
<path d="M58.4446 57.4856H48.1212C47.8461 57.4853 47.5823 57.3845 47.3878 57.2052C47.1932 57.0259 47.0838 56.7828 47.0835 56.5293V48.2899C47.0838 48.0364 47.1932 47.7933 47.3878 47.614C47.5823 47.4347 47.8461 47.3339 48.1212 47.3336H58.4446C58.7197 47.3339 58.9834 47.4347 59.178 47.614C59.3725 47.7933 59.4819 48.0364 59.4822 48.2899V56.5293C59.4819 56.7828 59.3725 57.0259 59.178 57.2052C58.9834 57.3845 58.7197 57.4853 58.4446 57.4856Z" fill="#F2F2F2"/>
<path d="M58.4446 67.9319H48.1212C47.8461 67.9316 47.5823 67.8308 47.3878 67.6515C47.1932 67.4722 47.0838 67.2291 47.0835 66.9756V58.7362C47.0838 58.4827 47.1932 58.2396 47.3878 58.0603C47.5823 57.881 47.8461 57.7802 48.1212 57.7799H58.4446C58.7197 57.7802 58.9834 57.881 59.178 58.0603C59.3725 58.2396 59.4819 58.4827 59.4822 58.7362V66.9756C59.4819 67.2291 59.3725 67.4722 59.178 67.6515C58.9834 67.8308 58.7197 67.9316 58.4446 67.9319Z" fill="#F2F2F2"/>
<path d="M71.1624 47.0393H60.8389C60.5638 47.039 60.3001 46.9381 60.1055 46.7589C59.911 46.5796 59.8016 46.3365 59.8013 46.0829V37.8436C59.8016 37.59 59.911 37.347 60.1055 37.1677C60.3001 36.9884 60.5638 36.8875 60.8389 36.8872H71.1624C71.4375 36.8875 71.7013 36.9884 71.8958 37.1677C72.0904 37.347 72.1998 37.59 72.2001 37.8436V46.0829C72.1998 46.3365 72.0904 46.5796 71.8958 46.7589C71.7013 46.9381 71.4375 47.039 71.1624 47.0393Z" fill="#F2F2F2"/>
<path d="M71.1624 57.4856H60.8389C60.5638 57.4853 60.3001 57.3845 60.1055 57.2052C59.911 57.0259 59.8016 56.7828 59.8013 56.5293V48.2899C59.8016 48.0364 59.911 47.7933 60.1055 47.614C60.3001 47.4347 60.5638 47.3339 60.8389 47.3336H71.1624C71.4375 47.3339 71.7013 47.4347 71.8958 47.614C72.0904 47.7933 72.1998 48.0364 72.2001 48.2899V56.5293C72.1998 56.7828 72.0904 57.0259 71.8958 57.2052C71.7013 57.3845 71.4375 57.4853 71.1624 57.4856Z" fill="#F2F2F2"/>
<path d="M58.4446 47.0393H48.1212C47.8461 47.039 47.5823 46.9381 47.3878 46.7589C47.1932 46.5796 47.0838 46.3365 47.0835 46.0829V37.8436C47.0838 37.59 47.1932 37.347 47.3878 37.1677C47.5823 36.9884 47.8461 36.8875 48.1212 36.8872H58.4446C58.7197 36.8875 58.9834 36.9884 59.178 37.1677C59.3725 37.347 59.4819 37.59 59.4822 37.8436V46.0829C59.4819 46.3365 59.3725 46.5796 59.178 46.7589C58.9834 46.9381 58.7197 47.039 58.4446 47.0393Z" fill="#F2F2F2"/>
<path d="M88.905 24.4973H43.6348C42.61 24.4963 41.6276 24.1206 40.9029 23.4527C40.1783 22.7849 39.7707 21.8794 39.7695 20.9349V11.7282C39.7707 10.7837 40.1783 9.87821 40.9029 9.21036C41.6276 8.54252 42.61 8.16685 43.6348 8.16577H88.905C89.9298 8.16685 90.9123 8.54252 91.6369 9.21036C92.3615 9.87821 92.7691 10.7837 92.7703 11.7282V20.9349C92.7691 21.8794 92.3615 22.7849 91.6369 23.4527C90.9123 24.1206 89.9298 24.4963 88.905 24.4973Z" fill="white"/>
<path d="M73.7731 21.7018H64.035C63.8233 21.7018 63.6203 21.6243 63.4706 21.4864C63.3209 21.3484 63.2368 21.1613 63.2368 20.9662C63.2368 20.7711 63.3209 20.584 63.4706 20.446C63.6203 20.308 63.8233 20.2305 64.035 20.2305H73.7731C73.9848 20.2305 74.1878 20.308 74.3375 20.446C74.4872 20.584 74.5713 20.7711 74.5713 20.9662C74.5713 21.1613 74.4872 21.3484 74.3375 21.4864C74.1878 21.6243 73.9848 21.7018 73.7731 21.7018Z" fill="#69B4DE"/>
<path d="M87.1828 21.7754H77.4447C77.233 21.7754 77.03 21.6979 76.8803 21.56C76.7306 21.422 76.6465 21.2349 76.6465 21.0398C76.6465 20.8447 76.7306 20.6575 76.8803 20.5196C77.03 20.3816 77.233 20.3041 77.4447 20.3041H87.1828C87.3945 20.3041 87.5975 20.3816 87.7472 20.5196C87.8969 20.6575 87.981 20.8447 87.981 21.0398C87.981 21.2349 87.8969 21.422 87.7472 21.56C87.5975 21.6979 87.3945 21.7754 87.1828 21.7754Z" fill="#69B4DE"/>
<path d="M60.0441 21.7754H50.306C50.0943 21.7754 49.8913 21.6979 49.7416 21.56C49.5919 21.422 49.5078 21.2349 49.5078 21.0398C49.5078 20.8447 49.5919 20.6575 49.7416 20.5196C49.8913 20.3816 50.0943 20.3041 50.306 20.3041H60.0441C60.2558 20.3041 60.4588 20.3816 60.6085 20.5196C60.7582 20.6575 60.8423 20.8447 60.8423 21.0398C60.8423 21.2349 60.7582 21.422 60.6085 21.56C60.4588 21.6979 60.2558 21.7754 60.0441 21.7754Z" fill="#69B4DE"/>
<path d="M81.8348 45.6107C82.3638 45.6107 82.7926 45.2154 82.7926 44.7279C82.7926 44.2403 82.3638 43.8451 81.8348 43.8451C81.3058 43.8451 80.877 44.2403 80.877 44.7279C80.877 45.2154 81.3058 45.6107 81.8348 45.6107Z" fill="#69B4DE"/>
<path d="M82.3138 56.2041C82.8428 56.2041 83.2716 55.8089 83.2716 55.3213C83.2716 54.8338 82.8428 54.4385 82.3138 54.4385C81.7848 54.4385 81.356 54.8338 81.356 55.3213C81.356 55.8089 81.7848 56.2041 82.3138 56.2041Z" fill="#69B4DE"/>
<path d="M97.6395 45.6107C98.1685 45.6107 98.5973 45.2154 98.5973 44.7279C98.5973 44.2403 98.1685 43.8451 97.6395 43.8451C97.1105 43.8451 96.6816 44.2403 96.6816 44.7279C96.6816 45.2154 97.1105 45.6107 97.6395 45.6107Z" fill="#69B4DE"/>
<path d="M9.15259 67.7712L8.99331 64.4704C7.33288 63.6524 5.48088 63.2203 3.59814 63.2117C6.18935 65.1642 5.86552 68.9279 7.6223 71.5536C8.17703 72.3686 8.92366 73.0582 9.80685 73.5711C10.69 74.0841 11.6872 74.4073 12.7243 74.5168L14.8927 75.7404C15.1903 74.2116 15.1247 72.6416 14.7004 71.1384C14.2762 69.6353 13.5034 68.2347 12.4354 67.0333C11.829 66.3648 11.1336 65.7694 10.3657 65.261C9.8464 66.5231 9.15259 67.7712 9.15259 67.7712Z" fill="#F2F2F2"/>
<path d="M8.41243e-07 75.8249C-7.35625e-05 75.8479 0.00478821 75.8707 0.0143095 75.892C0.0238307 75.9133 0.0378202 75.9326 0.0554767 75.9489C0.0731331 75.9652 0.0941101 75.9781 0.117193 75.9868C0.140277 75.9956 0.165014 76.0001 0.189984 76H100.81C100.86 76 100.909 75.9816 100.944 75.9487C100.98 75.9159 101 75.8714 101 75.8249C101 75.7785 100.98 75.734 100.944 75.7011C100.909 75.6683 100.86 75.6498 100.81 75.6498H0.189974C0.165006 75.6498 0.140265 75.6543 0.117184 75.663C0.0941018 75.6718 0.0731319 75.6847 0.0554767 75.701C0.0378214 75.7172 0.0238304 75.7366 0.0143095 75.7578C0.00478851 75.7791 -7.27089e-05 75.8019 8.41243e-07 75.8249Z" fill="#CCCCCC"/>
</g>
<defs>
<clipPath id="clip0_1119_16900">
<rect width="101" height="76" fill="white"/>
</clipPath>
</defs>
</svg>
